HIERARCHY
ROOT hip
{
  OFFSET 0 0 0
  CHANNELS 6 Xposition Yposition Zposition Zrotation Yrotation Xrotation
  JOINT abdomen
  {
    OFFSET 0 20.6881 -0.73152
    CHANNELS 3 Zrotation Xrotation Yrotation
    JOINT chest
    {
      OFFSET 0 11.7043 -0.48768
      CHANNELS 3 Zrotation Xrotation Yrotation
      JOINT neck
      {
        OFFSET 0 22.1894 -2.19456
        CHANNELS 3 Zrotation Xrotation Yrotation
        JOINT head
        {
          OFFSET -0.24384 7.07133 1.2192
          CHANNELS 3 Zrotation Xrotation Yrotation
          JOINT leftEye
          {
            OFFSET 4.14528 8.04674 8.04672
            CHANNELS 3 Zrotation Xrotation Yrotation
            End Site
            {
              OFFSET 1 0 0
            }
          }
          JOINT rightEye
          {
            OFFSET -3.6576 8.04674 8.04672
            CHANNELS 3 Zrotation Xrotation Yrotation
            End Site
            {
              OFFSET 1 0 0
            }
          }
        }
      }
      JOINT rCollar
      {
        OFFSET -2.68224 19.2634 -4.8768
        CHANNELS 3 Zrotation Xrotation Yrotation
        JOINT rShldr
        {
          OFFSET -8.77824 -1.95073 1.46304
          CHANNELS 3 Zrotation Xrotation Yrotation
          JOINT rForeArm
          {
            OFFSET -28.1742 -1.7115 0.48768
            CHANNELS 3 Zrotation Xrotation Yrotation
            JOINT rHand
            {
              OFFSET -22.5879 0.773209 7.07136
              CHANNELS 3 Zrotation Xrotation Yrotation
              JOINT rThumb1
              {
                OFFSET -1.2192 -0.487915 3.41376
                CHANNELS 3 Zrotation Xrotation Yrotation
                JOINT rThumb2
                {
                  OFFSET -3.37035 -0.52449 3.41376
                  CHANNELS 3 Zrotation Xrotation Yrotation
                  End Site
                  {
                    OFFSET -1.78271 -1.18214 1.43049
                  }
                }
              }
              JOINT rIndex1
              {
                OFFSET -7.75947 0.938293 5.60832
                CHANNELS 3 Zrotation Xrotation Yrotation
                JOINT rIndex2
                {
                  OFFSET -2.54057 -0.884171 1.56538
                  CHANNELS 3 Zrotation Xrotation Yrotation
                  End Site
                  {
                    OFFSET -1.62519 -0.234802 1.16502
                  }
                }
              }
              JOINT rMid1
              {
                OFFSET -8.24714 1.18213 3.41376
                CHANNELS 3 Zrotation Xrotation Yrotation
                JOINT rMid2
                {
                  OFFSET -3.10165 -0.590103 1.0647
                  CHANNELS 3 Zrotation Xrotation Yrotation
                  End Site
                  {
                    OFFSET -2.48547 -0.328903 0.83742
                  }
                }
              }
              JOINT rRing1
              {
                OFFSET -8.82822 0.546677 1.51678
                CHANNELS 3 Zrotation Xrotation Yrotation
                JOINT rRing2
                {
                  OFFSET -2.60934 -0.819778 -0.0198488
                  CHANNELS 3 Zrotation Xrotation Yrotation
                  End Site
                  {
                    OFFSET -2.33842 -0.294052 0.168128
                  }
                }
              }
              JOINT rPinky1
              {
                OFFSET -8.27202 -0.0477905 -0.4584
                CHANNELS 3 Zrotation Xrotation Yrotation
                JOINT rPinky2
                {
                  OFFSET -1.82734 -0.647385 -0.700984
                  CHANNELS 3 Zrotation Xrotation Yrotation
                  End Site
                  {
                    OFFSET -1.69225 -0.51767 -0.607171
                  }
                }
              }
            }
          }
        }
      }
      JOINT lCollar
      {
        OFFSET 2.68224 19.2634 -4.8768
        CHANNELS 3 Zrotation Xrotation Yrotation
        JOINT lShldr
        {
          OFFSET 8.77824 -1.95073 1.46304
          CHANNELS 3 Zrotation Xrotation Yrotation
          JOINT lForeArm
          {
            OFFSET 28.1742 -1.7115 0.48768
            CHANNELS 3 Zrotation Xrotation Yrotation
            JOINT lHand
            {
              OFFSET 22.5879 0.773209 7.07136
              CHANNELS 3 Zrotation Xrotation Yrotation
              JOINT lThumb1
              {
                OFFSET 1.2192 -0.487915 3.41376
                CHANNELS 3 Zrotation Xrotation Yrotation
                JOINT lThumb2
                {
                  OFFSET 3.37035 -0.52449 3.41376
                  CHANNELS 3 Zrotation Xrotation Yrotation
                  End Site
                  {
                    OFFSET 1.78271 -1.18214 1.43049
                  }
                }
              }
              JOINT lIndex1
              {
                OFFSET 7.75947 0.938293 5.60832
                CHANNELS 3 Zrotation Xrotation Yrotation
                JOINT lIndex2
                {
                  OFFSET 2.54057 -0.884171 1.56538
                  CHANNELS 3 Zrotation Xrotation Yrotation
                  End Site
                  {
                    OFFSET 1.62519 -0.234802 1.16502
                  }
                }
              }
              JOINT lMid1
              {
                OFFSET 8.24714 1.18213 3.41376
                CHANNELS 3 Zrotation Xrotation Yrotation
                JOINT lMid2
                {
                  OFFSET 3.10165 -0.590103 1.0647
                  CHANNELS 3 Zrotation Xrotation Yrotation
                  End Site
                  {
                    OFFSET 2.48547 -0.328903 0.83742
                  }
                }
              }
              JOINT lRing1
              {
                OFFSET 8.82822 0.546677 1.51678
                CHANNELS 3 Zrotation Xrotation Yrotation
                JOINT lRing2
                {
                  OFFSET 2.60934 -0.819778 -0.0198488
                  CHANNELS 3 Zrotation Xrotation Yrotation
                  End Site
                  {
                    OFFSET 2.33842 -0.294052 0.168128
                  }
                }
              }
              JOINT lPinky1
              {
                OFFSET 8.27202 -0.0477905 -0.4584
                CHANNELS 3 Zrotation Xrotation Yrotation
                JOINT lPinky2
                {
                  OFFSET 1.82734 -0.647385 -0.700984
                  CHANNELS 3 Zrotation Xrotation Yrotation
                  End Site
                  {
                    OFFSET 1.69225 -0.51767 -0.607171
                  }
                }
              }
            }
          }
        }
      }
    }
  }
  JOINT rButtock
  {
    OFFSET -8.77824 4.35084 1.2192
    CHANNELS 3 Zrotation Xrotation Yrotation
    JOINT rThigh
    {
      OFFSET 0 -1.70687 -2.19456
      CHANNELS 3 Zrotation Xrotation Yrotation
      JOINT rShin
      {
        OFFSET 0 -36.8199 0.73152
        CHANNELS 3 Zrotation Xrotation Yrotation
        JOINT rFoot
        {
          OFFSET 0.73152 -45.1104 -5.12064
          CHANNELS 3 Zrotation Xrotation Yrotation
          End Site
          {
            OFFSET -1.1221 -3.69964 12.103
          }
        }
      }
    }
  }
  JOINT lButtock
  {
    OFFSET 8.77824 4.35084 1.2192
    CHANNELS 3 Zrotation Xrotation Yrotation
    JOINT lThigh
    {
      OFFSET 0 -1.70687 -2.19456
      CHANNELS 3 Zrotation Xrotation Yrotation
      JOINT lShin
      {
        OFFSET 0 -36.8199 0.73152
        CHANNELS 3 Zrotation Xrotation Yrotation
        JOINT lFoot
        {
          OFFSET -0.73152 -45.1104 -5.12064
          CHANNELS 3 Zrotation Xrotation Yrotation
          End Site
          {
            OFFSET 1.1221 -3.69964 12.103
          }
        }
      }
    }
  }
}
MOTION
Frames:	4
Frame Time:	0.00833333
-20.9816 84.1002 -36.6028 0.0 0.0 0.0 -1.51926 -0.00282955 -0.0413934 -0.418698 0.00102588 -0.0725111 -2.0808e-14 0.0 4.96962e-16 -6.22507e-14 9.54166e-15 1.60891e-15 -0.0 0.0 0.0 -0.0 0.0 0.0 -1.01897e-14 -5.31904e-17 4.47265e-16 -2.16344e-13 -1.57785e-15 5.56597e-15 -3.75539e-12 1.08278e-12 1.36764e-13 -4.29997e-11 -1.32955e-12 9.57347e-13 -1.01426e-10 -5.29907e-13 2.39814e-12 -1.7516e-10 -9.12819e-13 4.13949e-12 -1.0142e-10 -5.26382e-13 2.39178e-12 7.73091 5.47488 0.417314 -1.01426e-10 -5.29761e-13 2.40132e-12 2.90554 0.965183 0.102902 -1.01422e-10 -5.29761e-13 2.39893e-12 10.2786 0.731801 0.0259123 -1.01424e-10 -5.28767e-13 2.4045e-12 2.22167 -0.733487 -0.20892 -1.03852e-14 -5.39669e-17 9.93923e-17 -2.19923e-13 -1.758e-15 4.17448e-15 -3.75857e-12 -1.16229e-12 1.27222e-13 -4.29941e-11 9.0529e-13 9.89153e-13 -1.01419e-10 -5.49785e-13 2.41086e-12 -1.75138e-10 -9.50986e-13 4.16732e-12 -1.01425e-10 -5.49043e-13 2.4204e-12 -7.73091 5.47488 -0.417314 -1.01419e-10 -5.49739e-13 2.40768e-12 -2.90554 0.965183 -0.102902 -1.01422e-10 -5.4954e-13 2.40848e-12 -10.2786 0.731801 -0.0259123 -1.01414e-10 -5.47851e-13 2.40132e-12 -2.22167 -0.733487 0.20892 -2.03217e-16 0.0 -3.88251e-19 -0.640658 -1.92323 -0.00643432 -0.00925379 -2.07856 -0.0764203 -0.512026 3.99733 0.140293 2.03217e-16 0.0 3.88251e-19 -1.66986 -6.49781 0.154703 -0.00230976 6.20797 -0.0679756 0.534174 0.285501 -0.0665832
-21.9768 82.5998 -39.0767 -5.7351 4.2657 7.1975 -0.626628 -1.73368 0.159643 0.968172 0.667419 -0.0580645 -0.28725 -1.45587 -0.808406 -0.638891 -0.791156 -1.5037 -0.0 0.0 0.0 -0.0 0.0 0.0 -9.95958e-14 -1.00687e-13 3.69258e-14 21.1414 2.32863 1.13014 -3.35962 -1.38795 5.38826 0.00824697 -2.02363 -0.283772 1.10279e-09 -7.38609e-10 7.32705e-10 1.90218e-09 -1.27141e-09 1.27094e-09 1.10279e-09 -7.38605e-10 7.32699e-10 7.73091 5.47488 0.417314 1.10279e-09 -7.38609e-10 7.32707e-10 2.90554 0.965183 0.102902 1.10279e-09 -7.38609e-10 7.32704e-10 10.2786 0.731801 0.0259123 1.10279e-09 -7.38608e-10 7.32709e-10 2.22167 -0.733487 -0.20892 -9.97126e-14 -1.00685e-13 3.66129e-14 -22.0437 5.49947 -1.18017 4.33584 -1.99366 -6.74645 -0.00407778 -1.41792 0.199056 8.62203e-10 3.15787e-11 -5.00859e-11 1.48858e-09 5.22897e-11 -8.2832e-11 8.62199e-10 3.15816e-11 -5.00752e-11 -7.73091 5.47488 -0.417314 8.62204e-10 3.15803e-11 -5.00897e-11 -2.90554 0.965183 -0.102902 8.62202e-10 3.15798e-11 -5.00884e-11 -10.2786 0.731801 -0.0259123 8.62209e-10 3.15812e-11 -5.00943e-11 -2.22167 -0.733487 0.20892 -2.03217e-16 0.0 -3.88251e-19 0.691221 -5.13913 0.478991 -0.00680084 3.90996 0.0376355 -0.593195 0.647884 -1.57248 2.03217e-16 0.0 3.88251e-19 1.43138 -9.20022 0.426035 -0.0162033 11.9873 -0.166031 0.632615 -2.94731 1.52796
-22.0036 82.595 -39.0961 -5.6438 4.4185 7.2607 0.327098 -3.56633 0.369727 2.43483 1.37161 -0.0436192 -0.636902 -2.98837 -1.66694 -1.35634 -1.63512 -3.09841 -0.0 0.0 0.0 -0.0 0.0 0.0 -1.98049e-13 -2.11036e-13 7.52524e-14 43.3942 4.76674 2.33181 -6.62394 -2.81133 11.0869 -0.00488284 -4.14069 -0.581851 2.43446e-09 -1.56444e-09 1.52259e-09 4.19951e-09 -2.69317e-09 2.64117e-09 2.43447e-09 -1.56443e-09 1.52258e-09 7.73091 5.47488 0.417314 2.43446e-09 -1.56444e-09 1.52259e-09 2.90554 0.965183 0.102902 2.43447e-09 -1.56444e-09 1.52259e-09 10.2786 0.731801 0.0259123 2.43446e-09 -1.56443e-09 1.52259e-09 2.22167 -0.733487 -0.20892 -1.9808e-13 -2.11031e-13 7.49729e-14 -45.0958 11.2996 -2.46526 8.41014 -4.00721 -13.9005 0.00233064 -2.90963 0.408884 1.93483e-09 8.84864e-11 -1.02457e-10 3.34053e-09 1.48133e-10 -1.69185e-10 1.93482e-09 8.84917e-11 -1.02445e-10 -7.73091 5.47488 -0.417314 1.93483e-09 8.84896e-11 -1.02461e-10 -2.90554 0.965183 -0.102902 1.93483e-09 8.84885e-11 -1.0246e-10 -10.2786 0.731801 -0.0259123 1.93483e-09 8.84895e-11 -1.02464e-10 -2.22167 -0.733487 0.20892 -2.03217e-16 0.0 -3.88251e-19 2.1545 -8.54289 0.998332 -0.0303785 10.2418 0.160534 -0.896147 -2.88656 -3.38168 2.03217e-16 0.0 3.88251e-19 4.73362 -12.0582 0.716903 -0.00821504 18.0952 -0.276327 0.933962 -6.3553 3.23351
-22.0241 82.5915 -39.1108 -5.5698 4.5255 7.3125 1.19519 -5.19515 0.563814 3.7409 2.0002 -0.0291772 -0.985262 -4.36412 -2.43149 -2.0412 -2.36693 -4.51454 -0.0 0.0 0.0 -0.0 0.0 0.0 -2.78408e-13 -3.01955e-13 1.09883e-13 63.147 6.97499 3.4129 -9.30562 -4.01681 16.2009 -0.0356807 -6.07028 -0.855584 3.51122e-09 -2.21477e-09 2.19332e-09 6.05686e-09 -3.8124e-09 3.80453e-09 3.51122e-09 -2.21476e-09 2.19331e-09 7.73091 5.47488 0.417314 3.51122e-09 -2.21477e-09 2.19332e-09 2.90554 0.965183 0.102902 3.51123e-09 -2.21477e-09 2.19332e-09 10.2786 0.731801 0.0259123 3.51121e-09 -2.21477e-09 2.19332e-09 2.22167 -0.733487 -0.20892 -2.78367e-13 -3.01947e-13 1.0964e-13 -65.4272 16.4698 -3.6752 11.6258 -5.64999 -20.3301 0.0173922 -4.25355 0.598633 2.78945e-09 9.58357e-11 -1.55079e-10 4.81602e-09 1.58771e-10 -2.56831e-10 2.78945e-09 9.5843e-11 -1.55066e-10 -7.73091 5.47488 -0.417314 2.78945e-09 9.58403e-11 -1.55084e-10 -2.90554 0.965183 -0.102902 2.78945e-09 9.58386e-11 -1.55082e-10 -10.2786 0.731801 -0.0259123 2.78945e-09 9.58393e-11 -1.55086e-10 -2.22167 -0.733487 0.20892 -2.03217e-16 0.0 -3.88251e-19 3.52147 -11.5677 1.474 -0.0752706 15.8868 0.275923 -1.35741 -6.02722 -5.02489 2.03217e-16 0.0 3.88251e-19 7.71316 -14.6037 0.986105 0.0206828 23.5457 -0.384054 1.37474 -9.38398 4.77504
